<svg width="113" height="74" viewBox="0 0 113 74" fill="none" xmlns="http://www.w3.org/2000/svg">
<path fill-rule="evenodd" clip-rule="evenodd" d="M37.6815 3.31229C35.2651 2.42312 32.6993 1.83918 30.6631 2.1311C28.6533 2.41923 27.4751 3.25767 26.4026 4.42895C25.9124 4.9643 25.4553 5.5571 24.9414 6.22344C24.9399 6.22537 24.9384 6.22731 24.9369 6.22924C24.8644 6.32321 24.7908 6.41864 24.7159 6.51557C24.1179 7.28862 23.451 8.13126 22.6366 8.97334C21.5844 10.0613 20.7735 11.9317 20.2041 13.9692C19.767 15.5327 19.4976 17.0995 19.3579 18.2916C20.1633 18.465 20.9507 18.6817 21.7721 18.9078C21.7727 18.9079 21.7732 18.9081 21.7738 18.9082C21.905 18.9443 22.0372 18.9807 22.1704 19.0172C25.2418 19.8578 28.7199 20.9348 31.155 22.8694C33.1364 24.4437 34.4231 26.7887 34.8379 27.7945C35.0542 28.3191 34.8052 28.9201 34.2817 29.1369C33.7582 29.3537 33.1585 29.1041 32.9422 28.5795C32.6075 27.768 31.4963 25.7637 29.8807 24.4802C27.8196 22.8426 24.7408 21.8515 21.63 21.0001C21.4975 20.9639 21.3678 20.9282 21.2403 20.8932C21.2392 20.8928 21.2381 20.8925 21.2369 20.8922C20.0807 20.5744 19.1149 20.3089 18.0823 20.1405C16.5629 19.8928 14.872 19.8534 12.3239 20.2709C8.21079 20.9448 5.32892 24.2526 3.21234 27.9468C2.28779 29.5604 1.89853 32.3895 2.10522 35.5701C2.30948 38.7133 3.08176 41.98 4.27089 44.3668C5.29987 46.432 7.12403 47.958 9.29309 49.1996C11.0687 50.216 12.9878 50.9963 14.7974 51.732C14.7978 51.7322 14.7983 51.7323 14.7987 51.7325C15.2115 51.9003 15.6185 52.0658 16.0169 52.2313C16.4111 52.3951 16.7959 52.5586 17.1653 52.7233C21.2197 54.5317 26.8877 55.7416 35.1653 56.2083C35.3337 56.2178 35.5045 56.2275 35.6777 56.2373C44.0861 56.712 58.1862 57.508 72.9062 56.8657C79.5865 56.5742 87.4878 56.1989 93.0416 55.4204C94.3187 55.2414 95.4581 55.0429 96.4212 54.8224C101.471 53.6666 105.658 49.8829 106.587 48.9095C108.651 46.7484 110.642 43.3852 110.896 40.414C111.16 37.3266 110.455 32.9057 108.374 28.6383C107.438 26.7194 105.466 25.1348 103.142 23.9575C100.836 22.7892 98.3276 22.0955 96.5252 21.8749C92.9287 21.4347 88.8989 22.4013 85.1061 23.7938C82.37 24.7984 80.3881 27.4616 79.7608 28.6634C79.4983 29.1664 78.8786 29.3608 78.3767 29.0978C77.8748 28.8347 77.6808 28.2136 77.9433 27.7107C78.6899 26.2803 80.9918 23.1153 84.4005 21.8637C87.0998 20.8727 90.046 20.0387 92.9619 19.7887C92.8233 19.559 92.774 19.2755 92.8475 18.9954C93.1358 17.8957 93.531 15.0833 92.8554 12.7779C92.4158 11.2781 91.858 10.1285 91.0584 9.08309C90.2507 8.02721 89.1643 7.0357 87.611 5.8895C86.1443 4.80716 84.8308 4.24728 83.1007 4.02496C81.3148 3.79546 79.0594 3.92122 75.687 4.29726C72.591 4.64248 71.1019 5.75747 69.8064 6.94077C69.6305 7.10143 69.454 7.26859 69.274 7.43903L69.2738 7.43923C68.1078 8.54353 66.7963 9.78561 64.5601 10.2944C59.8461 11.3668 53.057 10.5982 50.7334 10.3122C49.2783 10.1331 47.8489 9.26136 46.6277 8.40333C46.1497 8.06747 45.6718 7.70978 45.2176 7.36976C45.2166 7.36897 45.2155 7.36818 45.2144 7.36739C45.076 7.26376 44.9398 7.16179 44.8064 7.06258C44.2221 6.62795 43.6868 6.24193 43.1917 5.93947C42.1626 5.31086 40.0684 4.19062 37.6815 3.31229ZM94.7589 19.7122C94.789 19.6511 94.8134 19.5862 94.8313 19.5178C95.1674 18.236 95.6465 15.007 94.8234 12.1986C94.3262 10.5023 93.6663 9.11376 92.6862 7.8325C91.7142 6.56177 90.4587 5.43817 88.8272 4.23426C87.1092 2.96648 85.472 2.25729 83.3616 1.98609C81.307 1.72206 78.8321 1.87832 75.4601 2.25431C71.8118 2.66113 69.9358 4.04124 68.4247 5.42157C68.215 5.61312 68.017 5.79884 67.8262 5.97782C66.6604 7.07134 65.7635 7.91274 64.106 8.28981C59.7996 9.26955 53.3715 8.56591 50.9835 8.27197C50.0828 8.16111 49.0229 7.57578 47.8052 6.72021C47.3549 6.40383 46.9116 6.07205 46.4627 5.736C46.3188 5.62831 46.1743 5.52018 46.0289 5.41199C45.4419 4.97538 44.8413 4.53986 44.2593 4.18428C43.1339 3.49683 40.9193 2.31396 38.3885 1.38269C35.8871 0.462275 32.9263 -0.269852 30.3726 0.0962573C27.7925 0.466157 26.2075 1.60182 24.8913 3.03917C24.3379 3.64363 23.8229 4.31179 23.315 4.9708C23.2414 5.0662 23.1681 5.16141 23.0947 5.2562C22.5043 6.01955 21.8949 6.78673 21.1637 7.54273C19.743 9.01171 18.821 11.2966 18.2289 13.4147C17.7703 15.0554 17.4839 16.6931 17.3302 17.9718C15.8456 17.8307 14.1811 17.8838 11.9929 18.2423C6.92622 19.0724 3.62581 23.097 1.43356 26.9232C0.203692 29.0698 -0.156418 32.398 0.0584052 35.7037C0.275661 39.0469 1.09578 42.5955 2.43576 45.285C3.72085 47.8643 5.93597 49.6452 8.27575 50.9845C10.1829 52.0762 12.26 52.9198 14.0742 53.6567C14.2517 53.7288 14.4266 53.7999 14.5986 53.8701V63.3448C14.5986 65.8635 15.3045 68.5155 17.6503 70.197C18.8143 71.0314 20.8398 71.7001 22.7865 72.117C24.7465 72.5368 26.8799 72.755 28.3266 72.5399C29.7338 72.3307 30.8594 71.8753 31.7992 71.1714C32.7297 70.4746 33.4204 69.5769 34.0204 68.5733C34.3862 67.9615 34.6528 67.1121 34.8628 66.2283C35.0785 65.3207 35.2564 64.2785 35.4086 63.2213C35.5851 61.995 35.739 60.6473 35.8747 59.4594C35.9208 59.0557 35.9648 58.6704 36.0069 58.3146C44.2592 58.7802 57.7514 59.5187 71.9433 58.9629C71.9549 59.8849 71.9697 60.9748 72.0573 62.0643C72.1821 63.6155 72.4607 65.3073 73.1444 66.7853C73.8022 68.2071 74.7813 69.6417 75.9251 70.8275C77.0604 72.0043 78.4206 73.0006 79.8614 73.4455C81.2104 73.862 83.0211 74.0832 84.8738 73.9709C86.7238 73.8588 88.7072 73.4084 90.348 72.3992C92.0439 71.356 93.0973 69.7604 93.7583 68.1402C94.4184 66.5222 94.7136 64.8175 94.8591 63.4541C95.1004 61.1945 94.697 58.8902 94.3911 57.2974C95.292 57.1545 96.1273 56.9982 96.8779 56.8264C102.506 55.5382 107.034 51.4147 108.069 50.3307C110.314 47.9796 112.631 44.1985 112.94 40.5893C113.238 37.0963 112.444 32.3048 110.217 27.7358C108.998 25.2365 106.568 23.3899 104.067 22.1231C101.549 20.8473 98.8119 20.0839 96.7738 19.8345C96.1094 19.7531 95.4366 19.7142 94.7589 19.7122ZM92.3558 57.5853C87.0597 58.2557 80.0581 58.6073 73.994 58.8755C73.9944 58.909 73.9948 58.9427 73.9953 58.9764C74.0066 59.8832 74.0189 60.8678 74.1018 61.8991C74.219 63.3561 74.4713 64.7664 75.0053 65.9206C75.5652 67.1309 76.4127 68.3755 77.3999 69.3988C78.3956 70.431 79.4708 71.1739 80.4654 71.481C81.552 71.8166 83.1133 72.0183 84.7499 71.9191C86.3892 71.8198 88.012 71.4241 89.2751 70.6473C90.4829 69.9043 91.303 68.7268 91.8597 67.3623C92.4173 65.9957 92.6842 64.5043 92.8196 63.2355C93.0343 61.2249 92.6607 59.179 92.3558 57.5853ZM33.955 58.1937C26.3304 57.6902 20.7987 56.5276 16.6498 54.7409V63.3448C16.6498 65.5263 17.2553 67.3866 18.8437 68.5252C19.6468 69.1009 21.3213 69.7013 23.2151 70.1069C25.0956 70.5096 26.9432 70.6675 28.0256 70.5066C29.1475 70.3398 29.9422 69.9961 30.5714 69.5249C31.2098 69.0467 31.7369 68.3932 32.2609 67.5168C32.4572 67.1885 32.6668 66.5965 32.8675 65.752C33.0626 64.9313 33.2301 63.9583 33.3784 62.9278C33.5576 61.6835 33.6968 60.4559 33.825 59.3261L33.825 59.3258L33.8251 59.3249C33.8693 58.9351 33.9122 58.5569 33.955 58.1937ZM29.9117 7.9066C31.803 6.61315 34.2238 5.4921 36.5507 5.54641C38.9207 5.60172 40.9365 6.92713 42.7527 8.25912C43.0692 8.49118 43.381 8.72448 43.6904 8.95599C45.2378 10.1136 46.7257 11.2268 48.4332 11.9195C50.4588 12.7413 53.2824 13.0908 56.144 13.1371C58.9854 13.1831 61.7555 12.9293 63.6122 12.6112C67.2443 11.9889 68.8381 11.2865 71.2558 10.2211L71.4281 10.1452C71.9251 9.9263 72.5692 9.53728 73.3888 9.04219C73.3926 9.03994 73.3963 9.03769 73.4 9.03543C73.4983 8.97608 73.599 8.91522 73.7024 8.85295C74.6366 8.29004 75.7268 7.64751 76.8697 7.132C79.0958 6.12787 81.9142 5.43215 84.2721 7.26604C86.5178 9.01267 86.8647 11.281 86.6228 13.22C86.5043 14.1695 86.2456 15.0566 86.0085 15.7836C85.9238 16.0431 85.8469 16.2695 85.779 16.4691C85.6404 16.8768 85.5399 17.1726 85.4895 17.4102C85.2466 18.5551 84.2294 20.1382 82.6791 21.6367C81.0891 23.1735 78.8276 24.7316 75.9179 25.771C74.3694 26.3241 71.9586 26.5704 69.2269 26.6513C66.4577 26.7332 63.2331 26.6466 59.9821 26.4755C53.478 26.1332 46.8047 25.4492 43.3341 25.0726C39.6841 24.6766 35.806 23.083 32.7854 21.5614C29.7457 20.0302 27.4814 18.5235 27.0446 18.2313C26.6558 17.9712 26.3434 17.5741 26.1084 17.169C25.8645 16.7485 25.6624 16.2482 25.5294 15.707C25.2651 14.6323 25.2511 13.2982 25.8449 12.0469C26.1503 11.4031 26.716 10.6854 27.3939 9.99646C28.086 9.29305 28.9499 8.56434 29.9117 7.9066ZM28.8544 11.4397C28.2446 12.0595 27.8601 12.5864 27.6972 12.9296C27.3543 13.6524 27.3403 14.4804 27.521 15.2153C27.6104 15.5789 27.7421 15.8952 27.8816 16.1358C28.03 16.3916 28.1508 16.4998 28.1835 16.5217C28.5898 16.7935 30.7749 18.248 33.7067 19.7249C36.6577 21.2114 40.2731 22.673 43.5549 23.029C47.0159 23.4045 53.6438 24.0836 60.0897 24.4228C63.3137 24.5925 66.4763 24.6762 69.1664 24.5966C71.8939 24.5159 74.0145 24.2687 75.2292 23.8347C77.8461 22.9 79.8607 21.5049 81.2552 20.1571C82.6894 18.7708 83.3654 17.5379 83.4832 16.9827C83.5603 16.6191 83.7242 16.1366 83.8864 15.6591C83.9455 15.4851 84.0045 15.3116 84.0588 15.1449C84.2829 14.4582 84.4934 13.7184 84.5875 12.965C84.7705 11.4983 84.5156 10.0574 83.0145 8.88992C81.6255 7.80966 79.8142 8.05797 77.7116 9.00643C76.69 9.46721 75.6911 10.0531 74.7593 10.6146C74.6528 10.6788 74.5461 10.7433 74.4397 10.8077C73.6531 11.2836 72.8813 11.7505 72.2534 12.0271L72.0931 12.0977C69.6085 13.1925 67.8383 13.9725 63.9579 14.6373C61.9741 14.9772 59.0771 15.2404 56.1109 15.1924C53.1649 15.1447 50.0404 14.7892 47.6635 13.8249C45.6868 13.023 43.9496 11.7197 42.4045 10.5607C42.1099 10.3397 41.8223 10.124 41.5414 9.91795C39.7045 8.5708 38.1608 7.6401 36.503 7.60141C34.8021 7.56171 32.8133 8.41078 31.0679 9.60448C30.2113 10.1903 29.45 10.8344 28.8544 11.4397ZM80.4018 29.0325C84.5053 25.2084 90.5227 22.5656 95.7607 23.8025C96.312 23.9327 96.6536 24.4861 96.5237 25.0386C96.3938 25.5911 95.8415 25.9334 95.2902 25.8033C90.9738 24.784 85.6301 26.9672 81.7985 30.5378C80.1159 32.1058 78.9409 33.9085 77.661 35.8723C77.5294 36.0742 77.3967 36.2778 77.2622 36.4831C75.8362 38.6592 74.2415 40.9604 71.7205 42.9943C70.4312 44.0345 69.1479 44.9391 67.8031 45.7036C66.6168 46.486 66.1182 47.1049 65.5946 47.8747C65.5004 48.0132 65.4042 48.1587 65.3029 48.3121C64.7999 49.0736 64.17 50.0271 63.0226 51.2609C62.7027 51.6048 62.4179 51.9237 62.1493 52.2247L62.1285 52.2479L62.1282 52.2482C61.8699 52.5377 61.6217 52.8159 61.3806 53.072C60.8844 53.5993 60.3775 54.0787 59.7577 54.4647C58.4891 55.2549 56.9385 55.5361 54.404 55.5361C51.7699 55.5361 49.4435 54.9384 47.6576 54.0994C45.9282 53.287 44.5307 52.1623 44.0058 50.9771C43.9212 50.7861 43.6954 50.4543 43.2997 49.9972C42.9212 49.56 42.4435 49.0714 41.925 48.5747C40.9456 47.6367 39.861 46.7086 39.118 46.1056C37.7775 45.5961 36.591 45.0529 35.5672 44.5135C31.7974 42.5273 27.1821 39.7909 24.1243 34.9403C23.3807 33.7607 22.777 32.6745 22.2475 31.7047C22.1709 31.5644 22.0961 31.4272 22.023 31.2928C21.5846 30.4877 21.2029 29.7866 20.8175 29.1629C19.9312 27.7288 19.1261 26.8755 17.8961 26.4266C15.0393 25.3841 11.5108 25.5347 9.17198 28.1246C8.79191 28.5455 8.14336 28.5779 7.72339 28.1971C7.30342 27.8162 7.27107 27.1662 7.65113 26.7454C10.7452 23.319 15.2725 23.2816 18.5979 24.4952C20.459 25.1743 21.5741 26.4832 22.5613 28.0807C22.979 28.7566 23.3918 29.5149 23.8278 30.3159C23.9001 30.4488 23.9731 30.5829 24.0469 30.718C24.5711 31.6782 25.15 32.7189 25.8583 33.8424C28.6081 38.2043 32.7978 40.7321 36.5217 42.6941C37.5072 43.2133 38.6673 43.7425 39.9927 44.2392C43.5148 45.5592 48.1937 46.6455 53.854 46.7123C59.5754 46.7799 63.3651 45.8567 66.7638 43.9312C68.0009 43.2303 69.2009 42.3882 70.4342 41.3932C72.6904 39.5729 74.14 37.5029 75.5476 35.3548C75.6827 35.1487 75.8176 34.9413 75.9532 34.7331C77.214 32.7958 78.525 30.7814 80.4018 29.0325ZM43.8138 47.5492C44.187 47.9213 44.5409 48.2942 44.8491 48.6502C45.2677 49.1338 45.6654 49.6574 45.8806 50.1432C46.1051 50.6501 46.9557 51.4995 48.5282 52.2382C50.0441 52.9503 52.0735 53.4806 54.404 53.4806C56.8339 53.4806 57.9062 53.1978 58.6749 52.7189C59.0738 52.4704 59.4391 52.1391 59.8884 51.6616C60.1105 51.4257 60.3429 51.1652 60.6091 50.8669L60.6204 50.8544C60.8885 50.5539 61.1862 50.2206 61.5221 49.8594C62.3461 48.9734 62.8543 48.2754 63.2806 47.6449C60.6056 48.4489 57.5725 48.8119 53.8298 48.7677C50.0726 48.7234 46.7181 48.2486 43.8138 47.5492ZM93.1569 26.4437C94.8954 26.3982 96.7219 26.7658 99.0531 27.5944C101.379 28.4212 103.003 29.3459 104.189 30.7558C105.361 32.148 106.016 33.9096 106.632 36.1911C107.328 38.7688 106.699 41.2179 105.768 43.1366C104.838 45.0531 103.562 46.5388 102.783 47.2688C101.887 48.1074 100.206 48.8414 98.3271 49.3128C96.4046 49.7951 94.1026 50.0464 91.8526 49.7955C89.4787 49.5308 87.6306 48.4431 86.1259 47.1596C85.0161 46.2129 84.0391 45.1057 83.19 44.1434C83.1897 44.1431 83.1894 44.1428 83.1891 44.1425C82.9147 43.8314 82.6536 43.5355 82.4057 43.2651C81.3189 42.0796 80.9323 40.4845 80.8358 39.1047C80.7382 37.7089 80.9259 36.3764 81.1367 35.5475L81.147 35.5071L81.1605 35.4677C82.2436 32.3057 84.2748 29.0685 88.1368 27.602C89.8985 26.933 91.4442 26.4885 93.1569 26.4437ZM95.1448 28.6456C95.7421 29.9495 95.8125 31.1826 95.5967 32.3332C95.4465 33.1335 95.1645 33.8612 94.8867 34.4952C94.7672 34.7678 94.6567 35.0067 94.5541 35.2284L94.5539 35.229C94.3987 35.5644 94.2617 35.8607 94.1389 36.1755C93.5821 37.6035 92.1435 38.7913 90.5574 39.5493C88.9392 40.3226 86.9552 40.7544 85.0764 40.485C84.2197 40.3622 83.5223 40.0721 82.9654 39.6801C83.1107 40.5545 83.4134 41.326 83.9161 41.8744C84.2156 42.2011 84.5095 42.534 84.8044 42.8681C85.6315 43.8049 86.4667 44.7509 87.4554 45.5943C88.7609 46.7079 90.238 47.5473 92.0794 47.7526C94.0445 47.9717 96.0982 47.753 97.8289 47.3188C99.6031 46.8736 100.872 46.2445 101.382 45.7671C102.008 45.1811 103.12 43.8936 103.923 42.2379C104.725 40.5844 105.174 38.6623 104.652 36.7278C104.05 34.4971 103.487 33.1095 102.622 32.0811C101.771 31.0704 100.537 30.303 98.3675 29.5317C97.116 29.0869 96.0706 28.8019 95.1448 28.6456ZM83.1514 35.9888C83.1548 36.3533 83.2537 36.8844 83.5423 37.3539C83.8402 37.8384 84.3661 38.3067 85.3669 38.4502C86.7666 38.6509 88.3421 38.3306 89.6745 37.6939C91.039 37.0418 91.9422 36.1614 92.2284 35.4274C92.3691 35.0666 92.5569 34.6587 92.735 34.2721C92.8322 34.0608 92.9266 33.8559 93.0087 33.6685C93.2636 33.087 93.4734 32.5262 93.5808 31.9534C93.7637 30.9788 93.6734 29.8687 92.7034 28.5263C91.51 28.626 90.3341 28.9657 88.8635 29.5242C85.8465 30.6698 84.1374 33.1925 83.1514 35.9888ZM12.4131 28.2004C14.1602 27.9941 16.0153 28.2272 17.4742 28.8364C22.2398 30.8263 23.7688 35.1549 23.7688 38.7156C23.7688 40.5034 23.4106 42.1009 22.575 43.5346C21.7426 44.9628 20.4795 46.1546 18.7865 47.204C16.9409 48.348 14.7615 48.5955 12.7902 48.2981C10.827 48.0019 8.9576 47.1493 7.70213 45.9441C5.31221 43.6499 4.79334 41.4076 4.22737 38.9464C3.57177 36.0953 4.76822 33.209 6.46814 31.503C7.28718 30.681 8.29871 29.921 9.32133 29.3382C10.3301 28.7633 11.4266 28.3168 12.4131 28.2004ZM16.1349 30.5355C15.1141 30.2202 13.863 30.099 12.6531 30.2418C12.0472 30.3133 11.2234 30.6189 10.3353 31.125C9.46111 31.6233 8.59923 32.2734 7.91955 32.9555C6.70852 34.1708 5.87485 36.1596 6.14996 38.0757C7.78915 39.0026 9.59413 39.0917 11.1825 38.704C12.9322 38.277 14.2483 37.3172 14.7467 36.4915C15.3412 35.5066 15.7464 34.2293 15.9631 32.9813C16.1268 32.0384 16.1721 31.1765 16.1349 30.5355ZM18.1848 31.536C18.1579 32.1089 18.0905 32.7193 17.9839 33.3337C17.7394 34.7414 17.2691 36.2842 16.5017 37.5554C15.6383 38.9859 13.7696 40.1882 11.6679 40.7012C10.1581 41.0697 8.44176 41.1054 6.75707 40.5708C7.19076 41.9889 7.80042 43.192 9.12098 44.4597C10.0199 45.3226 11.4758 46.0211 13.0956 46.2654C14.7071 46.5085 16.3683 46.2859 17.7075 45.4559C19.1993 44.5312 20.1843 43.5609 20.8038 42.4979C21.4201 41.4405 21.7176 40.2179 21.7176 38.7156C21.7176 36.1388 20.7957 33.2927 18.1848 31.536ZM41.6994 29.171C42.0379 28.7158 42.6804 28.6218 43.1346 28.961C44.3401 29.8614 47.9584 31.7655 52.2635 31.7655C57.9212 31.7655 59.8986 31.392 62.5078 30.1701C63.0209 29.9297 63.6313 30.1518 63.8711 30.666C64.1109 31.1803 63.8894 31.792 63.3762 32.0323C60.3651 33.4425 58.0337 33.821 52.2635 33.821C47.4264 33.821 43.3886 31.7143 41.9089 30.6092C41.4548 30.27 41.361 29.6261 41.6994 29.171Z" fill="#342819"/>
<path d="M16.6498 54.7409C20.7987 56.5276 26.3304 57.6902 33.955 58.1937C33.9122 58.5569 33.8693 58.9351 33.8251 59.3249L33.825 59.3258L33.825 59.3261C33.6968 60.4559 33.5576 61.6835 33.3784 62.9278C33.2301 63.9583 33.0626 64.9313 32.8675 65.752C32.6668 66.5965 32.4572 67.1885 32.2609 67.5168C31.7369 68.3932 31.2098 69.0467 30.5714 69.5249C29.9422 69.9961 29.1475 70.3398 28.0256 70.5066C26.9432 70.6675 25.0956 70.5096 23.2151 70.1069C21.3213 69.7013 19.6468 69.1009 18.8437 68.5252C17.2553 67.3866 16.6498 65.5263 16.6498 63.3448V54.7409Z" fill="#342819"/>
<path d="M73.994 58.8755C80.0581 58.6073 87.0597 58.2557 92.3558 57.5853C92.6607 59.179 93.0343 61.2249 92.8196 63.2355C92.6842 64.5043 92.4173 65.9957 91.8597 67.3623C91.303 68.7268 90.4829 69.9043 89.2751 70.6473C88.012 71.4241 86.3892 71.8198 84.7499 71.9191C83.1133 72.0183 81.552 71.8166 80.4654 71.481C79.4708 71.1739 78.3956 70.431 77.3999 69.3988C76.4127 68.3755 75.5652 67.1309 75.0053 65.9206C74.4713 64.7664 74.219 63.3561 74.1018 61.8991C74.0189 60.8678 74.0066 59.8832 73.9953 58.9764L73.994 58.8755Z" fill="#342819"/>
<path d="M95.5967 32.3332C95.8125 31.1826 95.7421 29.9495 95.1448 28.6456C96.0706 28.8019 97.116 29.0869 98.3675 29.5317C100.537 30.303 101.771 31.0704 102.622 32.0811C103.487 33.1095 104.05 34.4971 104.652 36.7278C105.174 38.6623 104.725 40.5844 103.923 42.2379C103.12 43.8936 102.008 45.1811 101.382 45.7671C100.872 46.2445 99.6031 46.8736 97.8289 47.3188C96.0982 47.753 94.0445 47.9717 92.0794 47.7526C90.238 47.5473 88.7609 46.7079 87.4554 45.5943C86.4667 44.7509 85.6315 43.8049 84.8044 42.8681C84.5095 42.534 84.2156 42.2011 83.9161 41.8744C83.4134 41.326 83.1107 40.5545 82.9654 39.6801C83.5223 40.0721 84.2197 40.3622 85.0764 40.485C86.9552 40.7544 88.9392 40.3226 90.5574 39.5493C92.1435 38.7913 93.5821 37.6035 94.1389 36.1755C94.2617 35.8607 94.3987 35.5644 94.5539 35.229L94.5541 35.2284C94.6567 35.0067 94.7672 34.7678 94.8867 34.4952C95.1645 33.8612 95.4465 33.1335 95.5967 32.3332Z" fill="#342819"/>
<path d="M27.6972 12.9296C27.8601 12.5864 28.2446 12.0595 28.8544 11.4397C29.45 10.8344 30.2113 10.1903 31.0679 9.60448C32.8133 8.41078 34.8021 7.56171 36.503 7.60141C38.1608 7.6401 39.7045 8.5708 41.5414 9.91795C41.8223 10.124 42.1099 10.3397 42.4045 10.5607C43.9496 11.7197 45.6868 13.023 47.6635 13.8249C50.0404 14.7892 53.1649 15.1447 56.1109 15.1924C59.0771 15.2404 61.9741 14.9772 63.9579 14.6373C67.8383 13.9725 69.6085 13.1925 72.0931 12.0977L72.2534 12.0271C72.8813 11.7505 73.6531 11.2836 74.4397 10.8077C74.5461 10.7433 74.6528 10.6788 74.7593 10.6146C75.6911 10.0531 76.69 9.46721 77.7116 9.00643C79.8142 8.05797 81.6255 7.80966 83.0145 8.88992C84.5156 10.0574 84.7705 11.4983 84.5875 12.965C84.4934 13.7184 84.2829 14.4582 84.0588 15.1449C84.0045 15.3116 83.9455 15.4851 83.8864 15.6591C83.7242 16.1366 83.5603 16.6191 83.4832 16.9827C83.3654 17.5379 82.6894 18.7708 81.2552 20.1571C79.8607 21.5049 77.8461 22.9 75.2292 23.8347C74.0145 24.2687 71.8939 24.5159 69.1664 24.5966C66.4763 24.6762 63.3137 24.5925 60.0897 24.4228C53.6438 24.0836 47.0159 23.4045 43.5549 23.029C40.2731 22.673 36.6577 21.2114 33.7067 19.7249C30.7749 18.248 28.5898 16.7935 28.1835 16.5217C28.1508 16.4998 28.03 16.3916 27.8816 16.1358C27.7421 15.8952 27.6104 15.5789 27.521 15.2153C27.3403 14.4804 27.3543 13.6524 27.6972 12.9296Z" fill="#342819"/>
<path d="M17.9839 33.3337C18.0905 32.7193 18.1579 32.1089 18.1848 31.536C20.7957 33.2927 21.7176 36.1388 21.7176 38.7156C21.7176 40.2179 21.4201 41.4405 20.8038 42.4979C20.1843 43.5609 19.1993 44.5312 17.7075 45.4559C16.3683 46.2859 14.7071 46.5085 13.0956 46.2654C11.4758 46.0211 10.0199 45.3226 9.12098 44.4597C7.80042 43.192 7.19076 41.9889 6.75707 40.5708C8.44176 41.1054 10.1581 41.0697 11.6679 40.7012C13.7696 40.1882 15.6383 38.9859 16.5017 37.5554C17.2691 36.2842 17.7394 34.7414 17.9839 33.3337Z" fill="#342819"/>
<path d="M44.8491 48.6502C44.5409 48.2942 44.187 47.9213 43.8138 47.5492C46.7181 48.2486 50.0726 48.7234 53.8298 48.7677C57.5725 48.8119 60.6056 48.4489 63.2806 47.6449C62.8543 48.2754 62.3461 48.9734 61.5221 49.8594C61.1862 50.2206 60.8885 50.5539 60.6204 50.8544L60.6091 50.8669C60.3429 51.1652 60.1105 51.4257 59.8884 51.6616C59.4391 52.1391 59.0738 52.4704 58.6749 52.7189C57.9062 53.1978 56.8339 53.4806 54.404 53.4806C52.0735 53.4806 50.0441 52.9503 48.5282 52.2382C46.9557 51.4995 46.1051 50.6501 45.8806 50.1432C45.6654 49.6574 45.2677 49.1338 44.8491 48.6502Z" fill="#342819"/>
<path fill-rule="evenodd" clip-rule="evenodd" d="M30.6631 2.1311C32.6993 1.83918 35.2651 2.42312 37.6815 3.31229C40.0684 4.19062 42.1626 5.31086 43.1917 5.93947C43.6868 6.24193 44.2221 6.62795 44.8064 7.06258C44.9398 7.16179 45.076 7.26376 45.2144 7.36739L45.2176 7.36976C45.6718 7.70978 46.1497 8.06747 46.6277 8.40333C47.8489 9.26136 49.2783 10.1331 50.7334 10.3122C53.057 10.5982 59.8461 11.3668 64.5601 10.2944C66.7963 9.78561 68.1078 8.54353 69.2738 7.43923L69.274 7.43903C69.454 7.26859 69.6305 7.10143 69.8064 6.94077C71.1019 5.75747 72.591 4.64248 75.687 4.29726C79.0594 3.92122 81.3148 3.79546 83.1007 4.02496C84.8308 4.24728 86.1443 4.80716 87.611 5.8895C89.1643 7.0357 90.2507 8.02721 91.0584 9.08309C91.858 10.1285 92.4158 11.2781 92.8554 12.7779C93.531 15.0833 93.1358 17.8957 92.8475 18.9954C92.774 19.2755 92.8233 19.559 92.9619 19.7887C90.046 20.0387 87.0998 20.8727 84.4005 21.8637C80.9918 23.1153 78.6899 26.2803 77.9433 27.7107C77.6808 28.2136 77.8748 28.8347 78.3767 29.0978C78.8786 29.3608 79.4983 29.1664 79.7608 28.6634C80.3881 27.4616 82.37 24.7984 85.1061 23.7938C88.8989 22.4013 92.9287 21.4347 96.5252 21.8749C98.3276 22.0955 100.836 22.7892 103.142 23.9575C105.466 25.1348 107.438 26.7194 108.374 28.6383C110.455 32.9057 111.16 37.3266 110.896 40.414C110.642 43.3852 108.651 46.7484 106.587 48.9095C105.658 49.8829 101.471 53.6666 96.4212 54.8224C95.4581 55.0429 94.3187 55.2414 93.0416 55.4204C87.4878 56.1989 79.5865 56.5742 72.9062 56.8657C58.1862 57.508 44.0861 56.712 35.6777 56.2373L35.1653 56.2083C26.8877 55.7416 21.2197 54.5317 17.1653 52.7233C16.7959 52.5586 16.4111 52.3951 16.0169 52.2313C15.6185 52.0658 15.2115 51.9003 14.7987 51.7325L14.7974 51.732C12.9878 50.9963 11.0687 50.216 9.29309 49.1996C7.12403 47.958 5.29987 46.432 4.27089 44.3668C3.08176 41.98 2.30948 38.7133 2.10522 35.5701C1.89853 32.3895 2.28779 29.5604 3.21234 27.9468C5.32892 24.2526 8.21079 20.9448 12.3239 20.2709C14.872 19.8534 16.5629 19.8928 18.0823 20.1405C19.1149 20.3089 20.0807 20.5744 21.2369 20.8922L21.2403 20.8932C21.3678 20.9282 21.4975 20.9639 21.63 21.0001C24.7408 21.8515 27.8196 22.8426 29.8807 24.4802C31.4963 25.7637 32.6075 27.768 32.9422 28.5795C33.1585 29.1041 33.7582 29.3537 34.2817 29.1369C34.8052 28.9201 35.0542 28.3191 34.8379 27.7945C34.4231 26.7887 33.1364 24.4437 31.155 22.8694C28.7199 20.9348 25.2418 19.8578 22.1704 19.0172C22.0372 18.9807 21.905 18.9443 21.7738 18.9082L21.7721 18.9078C20.9507 18.6817 20.1633 18.465 19.3579 18.2916C19.4976 17.0995 19.767 15.5327 20.2041 13.9692C20.7735 11.9317 21.5844 10.0613 22.6366 8.97334C23.451 8.13126 24.1179 7.28862 24.7159 6.51557C24.7908 6.41864 24.8644 6.32321 24.9369 6.22924L24.9414 6.22344C25.4553 5.5571 25.9124 4.9643 26.4026 4.42895C27.4751 3.25767 28.6533 2.41923 30.6631 2.1311ZM29.9117 7.9066C31.803 6.61315 34.2238 5.4921 36.5507 5.54641C38.9207 5.60172 40.9365 6.92713 42.7527 8.25912C43.0692 8.49118 43.381 8.72448 43.6904 8.95599C45.2378 10.1136 46.7257 11.2268 48.4332 11.9195C50.4588 12.7413 53.2824 13.0908 56.144 13.1371C58.9854 13.1831 61.7555 12.9293 63.6122 12.6112C67.2443 11.9889 68.8381 11.2865 71.2558 10.2211L71.4281 10.1452C71.9251 9.9263 72.5692 9.53728 73.3888 9.04219L73.4 9.03543C73.4983 8.97608 73.599 8.91522 73.7024 8.85295C74.6366 8.29004 75.7268 7.64751 76.8697 7.132C79.0958 6.12787 81.9142 5.43215 84.2721 7.26604C86.5178 9.01267 86.8647 11.281 86.6228 13.22C86.5043 14.1695 86.2456 15.0566 86.0085 15.7836C85.9238 16.0431 85.8469 16.2695 85.779 16.4691C85.6404 16.8768 85.5399 17.1726 85.4895 17.4102C85.2466 18.5551 84.2294 20.1382 82.6791 21.6367C81.0891 23.1735 78.8276 24.7316 75.9179 25.771C74.3694 26.3241 71.9586 26.5704 69.2269 26.6513C66.4577 26.7332 63.2331 26.6466 59.9821 26.4755C53.478 26.1332 46.8047 25.4492 43.3341 25.0726C39.6841 24.6766 35.806 23.083 32.7854 21.5614C29.7457 20.0302 27.4814 18.5235 27.0446 18.2313C26.6558 17.9712 26.3434 17.5741 26.1084 17.169C25.8645 16.7485 25.6624 16.2482 25.5294 15.707C25.2651 14.6323 25.2511 13.2982 25.8449 12.0469C26.1503 11.4031 26.716 10.6854 27.3939 9.99646C28.086 9.29305 28.9499 8.56434 29.9117 7.9066ZM80.4018 29.0325C84.5053 25.2084 90.5227 22.5656 95.7607 23.8025C96.312 23.9327 96.6536 24.4861 96.5237 25.0386C96.3938 25.5911 95.8415 25.9334 95.2902 25.8033C90.9738 24.784 85.6301 26.9672 81.7985 30.5378C80.1159 32.1058 78.9409 33.9085 77.661 35.8723C77.5294 36.0742 77.3967 36.2778 77.2622 36.4831C75.8362 38.6592 74.2415 40.9604 71.7205 42.9943C70.4312 44.0345 69.1479 44.9391 67.8031 45.7036C66.6168 46.486 66.1182 47.1049 65.5946 47.8747C65.5004 48.0132 65.4042 48.1587 65.3029 48.3121C64.7999 49.0736 64.17 50.0271 63.0226 51.2609C62.7027 51.6048 62.4179 51.9237 62.1493 52.2247L62.1285 52.2479L62.1282 52.2482C61.8699 52.5377 61.6217 52.8159 61.3806 53.072C60.8844 53.5993 60.3775 54.0787 59.7577 54.4647C58.4891 55.2549 56.9385 55.5361 54.404 55.5361C51.7699 55.5361 49.4435 54.9384 47.6576 54.0994C45.9282 53.287 44.5307 52.1623 44.0058 50.9771C43.9212 50.7861 43.6954 50.4543 43.2997 49.9972C42.9212 49.56 42.4435 49.0714 41.925 48.5747C40.9456 47.6367 39.861 46.7086 39.118 46.1056C37.7775 45.5961 36.591 45.0529 35.5672 44.5135C31.7974 42.5273 27.1821 39.7909 24.1243 34.9403C23.3807 33.7607 22.777 32.6745 22.2475 31.7047C22.1709 31.5644 22.0961 31.4272 22.023 31.2928C21.5846 30.4877 21.2029 29.7866 20.8175 29.1629C19.9312 27.7288 19.1261 26.8755 17.8961 26.4266C15.0393 25.3841 11.5108 25.5347 9.17198 28.1246C8.79191 28.5455 8.14336 28.5779 7.72339 28.1971C7.30342 27.8162 7.27107 27.1662 7.65113 26.7454C10.7452 23.319 15.2725 23.2816 18.5979 24.4952C20.459 25.1743 21.5741 26.4832 22.5613 28.0807C22.979 28.7566 23.3918 29.5149 23.8278 30.3159C23.9001 30.4488 23.9731 30.5829 24.0469 30.718C24.5711 31.6782 25.15 32.7189 25.8583 33.8424C28.6081 38.2043 32.7978 40.7321 36.5217 42.6941C37.5072 43.2133 38.6673 43.7425 39.9927 44.2392C43.5148 45.5592 48.1937 46.6455 53.854 46.7123C59.5754 46.7799 63.3651 45.8567 66.7638 43.9312C68.0009 43.2303 69.2009 42.3882 70.4342 41.3932C72.6904 39.5729 74.14 37.5029 75.5476 35.3548C75.6827 35.1487 75.8176 34.9413 75.9532 34.7331C77.214 32.7958 78.525 30.7814 80.4018 29.0325ZM93.1569 26.4437C94.8954 26.3982 96.7219 26.7658 99.0531 27.5944C101.379 28.4212 103.003 29.3459 104.189 30.7558C105.361 32.148 106.016 33.9096 106.632 36.1911C107.328 38.7688 106.699 41.2179 105.768 43.1366C104.838 45.0531 103.562 46.5388 102.783 47.2688C101.887 48.1074 100.206 48.8414 98.3271 49.3128C96.4046 49.7951 94.1026 50.0464 91.8526 49.7955C89.4787 49.5308 87.6306 48.4431 86.1259 47.1596C85.0161 46.2129 84.0391 45.1057 83.19 44.1434L83.1891 44.1425C82.9147 43.8314 82.6536 43.5355 82.4057 43.2651C81.3189 42.0796 80.9323 40.4845 80.8358 39.1047C80.7382 37.7089 80.9259 36.3764 81.1367 35.5475L81.147 35.5071L81.1605 35.4677C82.2436 32.3057 84.2748 29.0685 88.1368 27.602C89.8985 26.933 91.4442 26.4885 93.1569 26.4437ZM12.4131 28.2004C14.1602 27.9941 16.0153 28.2272 17.4742 28.8364C22.2398 30.8263 23.7688 35.1549 23.7688 38.7156C23.7688 40.5034 23.4106 42.1009 22.575 43.5346C21.7426 44.9628 20.4795 46.1546 18.7865 47.204C16.9409 48.348 14.7615 48.5955 12.7902 48.2981C10.827 48.0019 8.9576 47.1493 7.70213 45.9441C5.31221 43.6499 4.79334 41.4076 4.22737 38.9464C3.57177 36.0953 4.76822 33.209 6.46814 31.503C7.28718 30.681 8.29871 29.921 9.32133 29.3382C10.3301 28.7633 11.4266 28.3168 12.4131 28.2004ZM41.6994 29.171C42.0379 28.7158 42.6804 28.6218 43.1346 28.961C44.3401 29.8614 47.9584 31.7655 52.2635 31.7655C57.9212 31.7655 59.8986 31.392 62.5078 30.1701C63.0209 29.9297 63.6313 30.1518 63.8711 30.666C64.1109 31.1803 63.8894 31.792 63.3762 32.0323C60.3651 33.4425 58.0337 33.821 52.2635 33.821C47.4264 33.821 43.3886 31.7143 41.9089 30.6092C41.4548 30.27 41.361 29.6261 41.6994 29.171Z" fill="#FFECD3"/>
</svg>
